<svg xmlns="http://www.w3.org/2000/svg" viewBox="0 0 158.946 35.992" height="35.992" width="158.946">
  <g fill="none" fill-rule="evenodd">
    <path d="M113.494 5.898l.026 19.32h.705a2.819 2.819 0 001.554-.446 2.949 2.949 0 001.065-1.165.35.35 0 00.045.041.522.522 0 01.054.05l.065.062c.437.553.934.973 1.496 1.258.555.294 1.219.437 2 .437.862 0 1.614-.17 2.25-.514a4.814 4.814 0 001.662-1.445c.46-.603.806-1.332 1.041-2.187a9.895 9.895 0 00.365-2.74v-.276c0-1.015-.12-1.962-.365-2.84a7.235 7.235 0 00-.434-1.19 5.749 5.749 0 00-.607-1.011 4.867 4.867 0 00-1.674-1.422c-.672-.335-1.425-.502-2.264-.502-.352 0-.682.034-.992.102a4.09 4.09 0 00-.869.287 4.68 4.68 0 00-1.433 1.095V8.94c0-.419-.079-.812-.239-1.181a3.116 3.116 0 00-.65-.967 3.016 3.016 0 00-2.147-.893zm-50.76.114v19.244h.907a2.549 2.549 0 001.033-.264 2.796 2.796 0 001.385-1.496c.133-.334.2-.687.2-1.057v-6.558c.21-.361.5-.657.87-.883.378-.21.84-.314 1.385-.314.327 0 .626.04.894.115.26.067.482.187.668.363.192.192.328.423.403.692.1.277.152.628.152 1.054v5.531c0 .37.067.723.201 1.057.133.336.32.63.555.881.234.251.51.456.83.615.32.16.663.248 1.033.264h.895l.011-8.32c0-.924-.1-1.71-.302-2.366a6.996 6.996 0 00-.39-.879 3.436 3.436 0 00-.503-.716 3.471 3.471 0 00-1.373-.893 5.809 5.809 0 00-1.79-.264c-.721 0-1.383.148-1.99.44-.291.15-.57.33-.83.535-.26.205-.5.442-.718.71V8.827c0-.368-.07-.718-.201-1.049a2.9 2.9 0 00-.555-.879 2.835 2.835 0 00-.83-.623 2.537 2.537 0 00-1.033-.263zm-17.129.3c-.629 0-1.125.182-1.486.542-.367.352-.553.796-.553 1.332 0 .294.05.554.15.78.102.226.237.423.403.59.094.094.195.17.305.231.108.064.225.12.351.17.253.092.53.14.83.14.31 0 .597-.048.858-.14a1.867 1.867 0 00.889-.672c.063-.096.123-.203.181-.32a2.1 2.1 0 00.139-.78c0-.544-.185-.987-.555-1.331-.36-.36-.865-.541-1.51-.541zm9.51 5.092c-1.027 0-1.939.177-2.742.53a5.747 5.747 0 00-2.02 1.449 6.274 6.274 0 00-1.246 2.193c-.287.847-.427 1.764-.427 2.752v.266c0 .998.14 1.918.427 2.76a6.253 6.253 0 001.252 2.185 5.71 5.71 0 002.03 1.447c.8.347 1.719.522 2.752.522 1.03 0 1.946-.175 2.744-.522a5.734 5.734 0 002.021-1.447 6.262 6.262 0 001.252-2.185c.285-.842.43-1.762.43-2.76v-.266c0-.988-.145-1.905-.43-2.752a6.24 6.24 0 00-1.252-2.193 5.788 5.788 0 00-2.035-1.451c-.806-.352-1.726-.528-2.756-.528zm27.278.239c-.907 0-1.7.18-2.38.54a4.742 4.742 0 00-1.638 1.497c-.361-.712-.84-1.233-1.436-1.559a4.219 4.219 0 00-1.636-.453v13.588h.918c.36 0 .704-.068 1.027-.207.323-.137.606-.328.85-.567.245-.239.435-.516.574-.835.137-.317.207-.658.207-1.018-.008-1.216-.014-2.3-.014-3.258v-3.29a2.64 2.64 0 01.832-1.12c.377-.277.839-.414 1.385-.414.328 0 .61.03.846.088.25.068.464.179.64.338.176.177.307.402.391.68.051.141.086.304.107.484.02.18.034.383.034.61l.011 5.632c0 .393.075.765.227 1.117a2.875 2.875 0 001.53 1.533 2.78 2.78 0 001.126.227h.693v-8.51c0-.478-.024-.91-.07-1.3a6.106 6.106 0 00-.219-1.075l-.002-.002c-.2-.645-.494-1.173-.878-1.584a3.067 3.067 0 00-1.35-.865 4.844 4.844 0 00-.85-.207 5.993 5.993 0 00-.925-.07zm12.53 0c-.904 0-1.7.18-2.378.54a4.748 4.748 0 00-1.639 1.497c-.362-.712-.84-1.233-1.435-1.559a4.221 4.221 0 00-1.637-.453v13.588h.92a2.69 2.69 0 001.875-.773 2.603 2.603 0 00.781-1.854c-.008-1.216-.014-2.3-.014-3.258v-3.29a2.65 2.65 0 01.834-1.12c.377-.277.838-.414 1.383-.414.328 0 .61.03.844.088.252.068.466.179.643.338.176.177.307.402.39.68.052.141.088.304.11.484.02.18.029.383.029.61l.014 5.632c0 .393.073.765.224 1.117.151.352.357.658.617.918s.566.465.914.615c.348.152.723.227 1.127.227h.694v-8.51c0-.478-.023-.91-.07-1.3a5.916 5.916 0 00-.22-1.075v-.002c-.2-.645-.496-1.173-.882-1.584a3.052 3.052 0 00-1.348-.865 4.803 4.803 0 00-.85-.207 5.99 5.99 0 00-.925-.07zm58.405.05c-.814 0-1.558.11-2.23.327-.662.226-1.226.533-1.688.918a4.06 4.06 0 00-1.043 1.308 3.81 3.81 0 00-.353 1.582c0 .586.118 1.09.353 1.51.117.218.26.422.428.615.168.192.353.372.553.54a6.547 6.547 0 001.511.818 13.422 13.422 0 001.903.552c.268.066.518.13.748.184.23.055.435.11.611.17.177.066.334.131.473.191.138.064.263.134.37.21.204.126.336.269.403.427.076.15.115.324.115.516 0 .42-.172.754-.517 1.005-.345.267-.86.403-1.547.403a3.58 3.58 0 01-.922-.115 2.995 2.995 0 01-.767-.35 1.524 1.524 0 01-.53-.604 1.017 1.017 0 01-.088-.214 2.925 2.925 0 01-.062-.25 2.657 2.657 0 00-.617-1.17 3.152 3.152 0 00-.957-.635 2.928 2.928 0 00-1.159-.233h-.718l-.012 1.61c0 .15.02.34.062.564.042.225.117.477.225.75a5.089 5.089 0 001.186 1.729c.242.234.517.433.818.596.303.164.628.307.982.433.696.267 1.529.402 2.495.402.855 0 1.623-.1 2.302-.3.345-.11.664-.234.96-.371.291-.14.563-.3.806-.485a3.766 3.766 0 001.121-1.283 3.296 3.296 0 00.402-1.62c0-.662-.13-1.227-.39-1.698a3.718 3.718 0 00-.448-.635 3.337 3.337 0 00-.597-.533 5.843 5.843 0 00-1.588-.793c-.638-.21-1.31-.383-2.016-.516a9.212 9.212 0 01-1.16-.289 4.46 4.46 0 01-.44-.176 1.859 1.859 0 01-.327-.19c-.2-.123-.338-.261-.415-.411a.929.929 0 01-.136-.518c0-.427.166-.77.502-1.03.328-.276.79-.413 1.384-.413.353 0 .646.02.883.062.234.041.449.134.643.276.167.117.3.253.396.408.096.156.165.316.207.484.024.1.057.206.094.315.038.109.08.216.121.32.042.105.085.2.133.283.044.083.09.147.13.19.26.318.584.57.964.754.382.184.803.277 1.265.277h.756v-1.711a3.895 3.895 0 00-.388-1.621 3.815 3.815 0 00-1.11-1.346 4.79 4.79 0 00-.799-.51 7.48 7.48 0 00-.953-.394c-.664-.21-1.439-.315-2.328-.315zm-109.473.037v14.33c0 .193-.028.373-.087.542a1.666 1.666 0 01-.73.96 1.81 1.81 0 01-.731.27 4.72 4.72 0 01-.434.031 6.88 6.88 0 00-.396.022 8.54 8.54 0 01-.416.01h-1.336v.603a2.41 2.41 0 00.12.756 2.632 2.632 0 00.335.678 2.06 2.06 0 00.629.578 2.588 2.588 0 00.793.314 5.736 5.736 0 00.187.02 2.107 2.107 0 01.178.018 16.27 16.27 0 00.44.044c.141.013.29.02.443.02.377 0 .728-.029 1.056-.082a5.93 5.93 0 00.932-.232c.597-.218 1.085-.53 1.463-.93.385-.395.69-.89.916-1.485a5.94 5.94 0 00.234-.96c.056-.34.082-.704.082-1.09V14.533c0-.386-.074-.747-.22-1.087a2.821 2.821 0 00-2.6-1.715zm66.043.098a2.596 2.596 0 00-.027.002 2.728 2.728 0 00-.986.244 2.616 2.616 0 00-.813.594 2.603 2.603 0 00-.543.879h-.01l-2.015 6.738-2.016-6.738a2.475 2.475 0 00-.555-.875 2.74 2.74 0 00-1.793-.836 2.49 2.49 0 00-1.04.152l-.881.301 4.595 13.174-.375 1.03a8.218 8.218 0 01-.152.353c-.052.109-.11.211-.178.312a2.698 2.698 0 01-.215.24 1.426 1.426 0 01-.25.2c-.16.12-.379.203-.654.254a1.667 1.667 0 01-.21.017c-.096.004-.201.012-.313.02l-.348.02a4.28 4.28 0 00-.313.019H99.37l.014.601c0 .293.037.574.111.842.075.27.195.508.356.717l.01.012c.196.245.432.43.718.56.285.13.585.187.895.17a30.062 30.062 0 001.441-.094c.24-.022.455-.044.645-.07.189-.025.32-.05.394-.076.244-.124.47-.26.68-.4.211-.143.395-.303.555-.479.168-.167.32-.346.453-.535.134-.188.248-.39.34-.61a20.872 20.872 0 00.492-1.091l5.303-15.2-.858-.287a2.596 2.596 0 00-1.02-.16zm9.655 2.455c.494 0 .901.103 1.22.313a2.474 2.474 0 01.819.842 4.654 4.654 0 01.453 1.283 6.497 6.497 0 01.11.76c.02.264.029.535.029.812v.275a8.864 8.864 0 01-.125 1.547 8.12 8.12 0 01-.196.66 3.898 3.898 0 01-.258.584 2.44 2.44 0 01-.82.856c-.32.202-.722.3-1.209.3-.577 0-1.07-.125-1.472-.376a2.659 2.659 0 01-.92-1.057v-5.365a2.641 2.641 0 01.92-1.057c.403-.252.886-.377 1.449-.377zm-64.438.05c.508 0 .949.105 1.309.32a2.568 2.568 0 01.883.87 3.852 3.852 0 01.49 1.272c.1.481.15.992.15 1.527v.268a7.62 7.62 0 01-.152 1.558c-.1.486-.263.91-.49 1.266-.227.357-.518.64-.875.85-.357.21-.787.314-1.29.314-.521 0-.96-.104-1.316-.314a2.511 2.511 0 01-.87-.85 3.83 3.83 0 01-.485-1.266 7.739 7.739 0 01-.15-1.56v-.266a7.429 7.429 0 01.15-1.527 3.975 3.975 0 01.484-1.272 2.542 2.542 0 01.87-.87c.356-.215.787-.32 1.292-.32z" fill="#fff"/>
    <path d="M19.9 34.558h-9.227a.236.236 0 00-.236.235v.963c0 .13.107.236.236.236h9.228c.13 0 .236-.106.236-.236v-.963a.235.235 0 00-.236-.235zM10.674 1.432h9.228c.13 0 .236-.105.236-.235V.235A.235.235 0 0019.9 0h-9.228a.237.237 0 00-.236.235v.962c0 .13.107.235.236.235zm19.49 1.158H20.79a.238.238 0 00-.237.236v.963c0 .13.108.235.237.235h8.656v27.957H20.79a.237.237 0 00-.237.235v.963c0 .129.108.235.237.235h9.374c.395 0 .718-.32.718-.715V3.307a.72.72 0 00-.718-.717zm-20.168 0H.718A.718.718 0 000 3.307V32.7c0 .395.322.715.718.715h9.277a.235.235 0 00.234-.235v-.963a.235.235 0 00-.234-.235h-8.56V4.024h8.56a.236.236 0 00.234-.235v-.963a.236.236 0 00-.234-.236zm4.944 16.46v.909a1.009 1.009 0 01-1.005 1.114c-.023 0-.045-.002-.067-.004h-1.133v3.209h2.86a3.68 3.68 0 003.675-3.67 3.644 3.644 0 00-2.05-3.284l-1.29-.637 1.035-.998a2.28 2.28 0 00.711-1.658c0-1.27-1.032-2.3-2.303-2.3h-2.638v1.993H10.71V9.748h5.25v.003c2.102.29 3.743 2.119 3.743 4.279 0 .755-.192 1.482-.559 2.126a5.676 5.676 0 01-2.716 10.068H10.71v-5.99c0-.652.53-1.18 1.18-1.18v-.002l3.05-.003z" fill="#3fae49"/>
    <path d="M140.561 11.43c-1.024 0-1.94.177-2.74.53a5.756 5.756 0 00-2.022 1.45 6.29 6.29 0 00-1.246 2.194 8.549 8.549 0 00-.428 2.752v.266c0 .998.142 1.917.428 2.76a6.23 6.23 0 001.254 2.185 5.7 5.7 0 002.027 1.445c.802.347 1.72.522 2.752.522 1.033 0 1.947-.175 2.745-.522a5.724 5.724 0 002.021-1.445 6.26 6.26 0 001.254-2.186c.285-.842.428-1.761.428-2.76v-.265c0-.988-.143-1.905-.428-2.752a6.259 6.259 0 00-1.254-2.193 5.785 5.785 0 00-2.031-1.451c-.807-.352-1.727-.53-2.76-.53zm0 2.93c.513 0 .949.106 1.31.32a2.601 2.601 0 01.881.87 3.888 3.888 0 01.493 1.273c.1.48.15.991.15 1.527v.266a7.653 7.653 0 01-.152 1.56 3.76 3.76 0 01-.49 1.266c-.228.357-.52.64-.878.85-.356.21-.786.314-1.289.314-.52 0-.958-.104-1.314-.314a2.494 2.494 0 01-.871-.85 3.842 3.842 0 01-.484-1.268 7.72 7.72 0 01-.15-1.558v-.266a7.5 7.5 0 01.15-1.527 3.986 3.986 0 01.484-1.274 2.525 2.525 0 01.869-.869c.357-.214.787-.32 1.291-.32z" fill="#fff"/>
    <path d="M126.951 11.702v11.903a1.77 1.77 0 00.524 1.277 1.784 1.784 0 001.951.383 1.787 1.787 0 001.09-1.66v-6.963c.109-.218.246-.407.41-.57.164-.164.349-.306.559-.422a2.31 2.31 0 01.75-.29c.28-.057.599-.087.95-.087a8.598 8.598 0 01.655.025l.065.012v-3.608h-.745a3.06 3.06 0 00-1.63.471c-.482.306-.85.709-1.104 1.213a2.994 2.994 0 00-1.1-1.213 3.071 3.071 0 00-1.63-.47z" fill="#fff"/>
  </g>
</svg>
