<svg width="99" height="86" viewBox="0 0 99 86" xmlns="http://www.w3.org/2000/svg">
  <g fill="none" fill-rule="evenodd">
    <g fill="#1E3066">
      <g>
        <g>
          <g>
            <path d="M32.023 32.204a1.85 1.85 0 10-1.265 3.476 1.85 1.85 0 001.265-3.476zm15.499 7.609c-2.87-5.75-6.23-10.965-11.01-12.093-3.341-.789-7.31.485-11.809 3.787 1.323 5.422 3.545 8.95 6.612 10.493 4.387 2.208 10.312.373 16.207-2.187zm3.98 1.448c1.309 2.503 2.861 4.975 3.997 6.697l3.369-9.258c-1.976.59-4.755 1.485-7.367 2.561zm-2.684 1.167c-10.91 4.71-15.503 3.848-18.816 2.18-4.117-2.072-6.852-6.45-8.361-13.385a1.46 1.46 0 01.533-1.466c5.614-4.342 10.524-5.938 15.01-4.88 5.957 1.407 9.81 7.32 13.016 13.764 4.963-2.068 10.404-3.468 10.653-3.532a1.46 1.46 0 011.733 1.914l-5.317 14.61a1.46 1.46 0 01-2.558.352c-.15-.21-3.42-4.781-5.893-9.557zm20.932 38.59a4.74 4.74 0 01.27-2.029l.158-.434-47.32-17.223a1.384 1.384 0 11.946-2.6l47.32 17.222L88.834 27.3 22.614 3.197 4.906 51.853l13.695 4.984a1.384 1.384 0 11-.947 2.602L3.96 54.454l-.158.434a2 2 0 001.194 2.562L69.75 81.018zm4.066 1.48a2 2 0 002.562-1.195l19.287-52.991a1.384 1.384 0 012.601.947L78.98 82.249a4.773 4.773 0 01-6.11 2.85L4.049 60.051a4.773 4.773 0 01-2.848-6.11L20.488.95a1.384 1.384 0 011.774-.827L91.08 25.17a1.383 1.383 0 01.827 1.773L72.621 79.936a2 2 0 001.195 2.562zM62.28 64.404a1.385 1.385 0 01-1.273-2.458l5.757-2.98-2.494-5.985a1.385 1.385 0 01.64-1.762l5.758-2.98-2.494-5.985a1.386 1.386 0 01.641-1.762l5.758-2.98-2.495-5.986a1.384 1.384 0 112.556-1.065l2.984 7.161a1.378 1.378 0 01-.64 1.762l-5.759 2.981 2.495 5.984a1.383 1.383 0 01-.641 1.762l-5.757 2.98 2.494 5.985a1.383 1.383 0 01-.641 1.761l-6.89 3.567z"/>
          </g>
        </g>
      </g>
    </g>
  </g>
</svg>
