<svg width="74" height="82" viewBox="0 0 74 82" xmlns="http://www.w3.org/2000/svg">
  <g fill="none" fill-rule="evenodd">
    <g fill="#1E3066">
      <g>
        <g>
          <path d="M57.276 47.7h1.748a22.32 22.32 0 01-5.269 12.692l-1.227-1.228a1.818 1.818 0 00-2.57 2.57l1.228 1.228a22.325 22.325 0 01-12.693 5.268v-1.747a1.817 1.817 0 10-3.634 0v1.747a22.322 22.322 0 01-12.692-5.268l1.228-1.228a1.817 1.817 0 10-2.57-2.57l-1.228 1.228A22.327 22.327 0 0114.329 47.7h1.748a1.817 1.817 0 000-3.634h-1.748a22.329 22.329 0 015.268-12.692l1.228 1.228c.355.355.82.532 1.285.532a1.817 1.817 0 001.285-3.102l-1.228-1.228a22.324 22.324 0 0112.692-5.269v1.748a1.818 1.818 0 003.634 0v-1.748a22.324 22.324 0 0112.692 5.269l-1.227 1.228a1.817 1.817 0 102.569 2.57l1.228-1.228a22.334 22.334 0 015.269 12.692h-1.748a1.818 1.818 0 100 3.634zm-20.6-27.51c-14.166 0-25.692 11.526-25.692 25.693 0 14.167 11.526 25.692 25.693 25.692 14.166 0 25.691-11.525 25.691-25.692S50.843 20.191 36.677 20.191zm0 56.994c-17.26 0-31.3-14.042-31.3-31.3 0-17.26 14.04-31.301 31.3-31.301s31.301 14.04 31.301 31.3-14.041 31.301-31.3 31.301zM4.457 17.051c-1.824-4.086-.558-9.036 3.241-11.696a9.485 9.485 0 015.458-1.722 9.56 9.56 0 016.643 2.676L4.455 17.05zm49.1-10.742c3.216-3.111 8.3-3.614 12.1-.954 3.8 2.66 5.065 7.61 3.242 11.696L53.555 6.31zM58.13 18.33l2.059-2.94 8.255 5.78a1.812 1.812 0 001.356.301 1.814 1.814 0 001.174-.747c4.166-5.95 2.715-14.181-3.234-18.347C61.79-1.788 53.56-.337 49.394 5.613a1.818 1.818 0 00.446 2.53l7.373 5.163-2.06 2.942a34.72 34.72 0 00-18.476-5.3 34.721 34.721 0 00-18.477 5.3l-2.06-2.942 7.373-5.162a1.817 1.817 0 00.446-2.53C19.793-.337 11.563-1.789 5.613 2.377c-5.95 4.166-7.401 12.396-3.235 18.346a1.817 1.817 0 002.53.447l8.255-5.78 2.059 2.94c-8.199 6.4-13.48 16.37-13.48 27.552 0 12.16 6.246 22.888 15.698 29.146l-2.878 4.111a1.817 1.817 0 002.977 2.085l3.04-4.343a34.724 34.724 0 0016.097 3.937 34.717 34.717 0 0016.095-3.936l3.04 4.342a1.815 1.815 0 002.531.446 1.817 1.817 0 00.446-2.53l-2.876-4.11c9.452-6.258 15.699-16.987 15.699-29.148 0-11.182-5.282-21.153-13.48-27.552zm-21.454 28.63a1.08 1.08 0 01-1.08-1.078 1.08 1.08 0 011.08-1.079 1.08 1.08 0 011.079 1.079 1.08 1.08 0 01-1.08 1.079zm4.92-8.57l-3.412 3.413a4.341 4.341 0 00-3.018 0l-7.014-7.014a1.818 1.818 0 00-2.57 2.57l7.014 7.015a4.355 4.355 0 004.08 5.858 4.355 4.355 0 004.08-5.86l3.411-3.411a1.819 1.819 0 00-2.57-2.57z"/>
        </g>
      </g>
    </g>
  </g>
</svg>
