<svg width="106" height="80" viewBox="0 0 106 80" xmlns="http://www.w3.org/2000/svg">
  <g fill="none" fill-rule="evenodd">
    <g fill="#1E3066">
      <g>
        <g>
          <g>
            <path d="M94.043 39.95l-1.498-2.414-1.745-2.815-12.855-20.723-1.818-2.983c-.032-.053-.081-.09-.118-.138l-1.46-2.356 7.391-4.585 19.495 31.428-7.392 4.586zm-42.85 33.087c-.004.005-.006.012-.01.018.004-.006.006-.013.01-.018zm25.672-18.65C74.052 52.32 60.312 42.292 58.214 40.76c-.142-.11-.228-.178-.24-.186a1.654 1.654 0 00-2.037 2.604c.048.05.128.108.267.21 2.102 1.645 15.171 11.867 18.02 13.964.961.708 1.438 1.792 1.273 2.898-.166 1.117-.95 2.007-2.152 2.448-1.323.002-4.887-2.023-9.15-4.89-3.508-2.906-7.65-5.818-10.794-7.93-.135-.075-.186-.104-.24-.128a2.357 2.357 0 00-.303-.104 2.354 2.354 0 00-.314-.043c-.214.006-.265.011-.316.019-.207.046-.258.06-.307.078a2.615 2.615 0 00-.288.136c-.178.124-.22.156-.258.192-.143.148-.17.168-.19.194-.098.135-.108.167-.126.196-.102.198-.12.249-.138.3-.06.207-.068.26-.074.312-.018.21-.016.263-.013.317.024.208.036.259.048.31.064.203.085.25.107.297.103.19.134.233.165.276.14.169.18.206.221.243 3.066 2.452 7.034 5.488 10.884 8.071 3.26 2.683 5.586 4.958 5.758 5.923-.014 1.306-.606 2.357-1.623 2.882-.994.513-2.173.412-3.153-.27-2.973-2.066-14.082-10.96-14.587-11.364-.197-.132-.244-.168-.295-.195-.21-.085-.254-.107-.301-.12-.216-.043-.266-.056-.315-.06-.204 0-.261-.004-.32.002-.181.034-.247.043-.313.063-.16.063-.23.088-.294.123-.15.096-.213.133-.27.18-.137.136-.185.174-.226.224-.123.184-.163.236-.192.292-.078.19-.104.245-.12.3-.04.207-.054.26-.06.313.001.214-.002.266.003.317.041.212.048.262.062.31.082.202.098.25.122.296.119.182.145.228.18.271.149.15.183.194.226.23l11.314 9.347c.009.37-.046.922-.368 1.426-.499.782-1.526 1.312-3.025 1.572-.57 0-1.43-.395-2.557-1.116.21-.723.28-1.489.198-2.261a5.82 5.82 0 00-2.147-3.937 5.876 5.876 0 00-4.988-1.151 6.605 6.605 0 00-2.41-4.363A6.646 6.646 0 0038.4 58.31a6.68 6.68 0 00-1.376.148 6.58 6.58 0 00-2.405-6.003 6.649 6.649 0 00-4.913-1.427 7.414 7.414 0 00-.028-1.132 7.385 7.385 0 00-2.701-4.977 7.474 7.474 0 00-4.688-1.667c-.206 0-.41.018-.613.034a508.263 508.263 0 01-5.131-5.482l15.362-24.767 1.924.795c-2.258 3.065-3.905 8.045-4.015 13.66-.007.446-.354 4.339 1.963 6.453 1.063.97 2.444 1.393 3.992 1.228 7.044-.747 11.248-4.557 11.248-10.193 0-.226.026-.386.062-.502a2.44 2.44 0 01.437-.398c.737-.286 2.131-.113 3.516.25.98.422.964.301 3.232 1.731 2.268 1.43 27.998 24.484 28.177 24.57.65.844 1.006 1.512.974 1.918-.278 1.396-1.287 2.057-2.084 2.367-1.468.57-3.263.355-4.468-.528zM45.352 75.06c-.855 1.06-2.521 1.243-3.586.383a2.554 2.554 0 01-.383-3.587l2.91-3.606a2.539 2.539 0 011.986-.95c.588 0 1.141.196 1.6.567.531.428.863 1.037.935 1.714a2.539 2.539 0 01-.551 1.873l-2.91 3.606zm-13.696-5.507a3.3 3.3 0 01.719-2.437l3.44-4.264a3.306 3.306 0 012.585-1.235 3.28 3.28 0 012.08.736 3.322 3.322 0 01.499 4.668l-3.44 4.263a3.312 3.312 0 01-2.586 1.235 3.275 3.275 0 01-2.08-.737 3.301 3.301 0 01-1.217-2.229zm-7.363-9.545c.074-.083.153-.16.223-.247l3.556-4.407c.02-.025.037-.053.058-.079a3.277 3.277 0 014.412-.246 3.297 3.297 0 011.215 2.23 3.297 3.297 0 01-.718 2.437l-3.44 4.263a3.308 3.308 0 01-2.586 1.236 3.274 3.274 0 01-2.08-.736c-1.356-1.094-1.608-3.037-.64-4.45zM15.518 52.5l3.557-4.407a4.11 4.11 0 013.214-1.535c.943 0 1.832.31 2.57.901a4.116 4.116 0 011.53 2.787 4.084 4.084 0 01-.782 2.865c-.103.112-.21.22-.307.34l-3.44 4.262c-.08.1-.15.206-.224.309a4.111 4.111 0 01-2.908 1.196 4.078 4.078 0 01-2.57-.9c-1.79-1.445-2.068-4.048-.64-5.818zm-4.195-12.554l-7.392-4.587L23.425 3.931l7.393 4.585-19.495 31.43zm67.848-17.584l9.17 14.345.682 1.096-6.188 8.317c-1.028-1.056-2.3-2.25-3.907-3.622l-.384-.325a268.09 268.09 0 00-7.998-7.505c-5.717-5.131-10.444-8.857-14.257-11.232 0 0-3.167-1.993-4.458-2.33-1.104-.44-2.067-.592-3.281-.592-1.215 0-1.923.219-2.613.638-.16.077-.32.158-.468.256a3.772 3.772 0 00-1.22 1.318c-.705.97-.667 1.684-1.074 3.834-.431 2.797-2.556 4.567-7.81 5.238-.603.073-1.216.155-1.57-.561-1.677-3.394 1.573-13.71 2.519-14.952 2.868-3.07 6.613-5.108 11.175-6.101 9.812-1.629 21.591 1.59 25.344 2.744.284.103.534.196.723.269l1.609 2.593 4.006 6.572zM83.88.787a1.655 1.655 0 00-2.276-.533L71.4 6.584a1.648 1.648 0 00-.577 2.186c-3.915-1.185-9.933-2.6-16.342-2.6-2.764 0-5.345.263-7.735.784-3.408.592-6.646 1.713-9.387 3.615-.34.236-.666.482-.984.736l-2.702-1.117.827-1.334a1.653 1.653 0 00-.534-2.276L23.763.248a1.654 1.654 0 00-2.277.534L.249 35.022a1.653 1.653 0 00.533 2.276l10.203 6.33a1.655 1.655 0 002.277-.534l1.475-2.376c.714.766 1.93 2.067 3.509 3.73a7.433 7.433 0 00-1.745 1.568l-3.556 4.407c-2.567 3.182-2.076 7.856 1.094 10.434a7.474 7.474 0 004.689 1.669c.575 0 1.142-.067 1.689-.195a6.606 6.606 0 007.972 6.023 6.58 6.58 0 002.406 6.001 6.643 6.643 0 004.158 1.47c.993 0 1.953-.22 2.823-.629a5.827 5.827 0 001.913 2.82 5.876 5.876 0 003.676 1.3 5.838 5.838 0 004.562-2.18l2.301-2.853c2.184 1.373 3.35 1.654 4.09 1.654.274 0 .49-.037.68-.07 2.482-.427 4.257-1.456 5.277-3.056a5.5 5.5 0 00.613-1.348c.168.122.327.235.465.331a6.518 6.518 0 003.717 1.18c.976-.001 1.949-.227 2.84-.688 2.11-1.088 3.388-3.25 3.414-5.784.004-.324-.075-.679-.214-1.055.928.33 1.75.517 2.422.517.323 0 .611-.042.862-.13 2.39-.843 4.024-2.749 4.374-5.098a6.153 6.153 0 00-.097-2.257 8.112 8.112 0 003.857-.481c2.186-.848 3.692-2.597 4.133-4.801.18-.91.076-2.153-1.356-4.187l5.69-7.7 1.109 1.79a1.656 1.656 0 002.277.532l10.203-6.329a1.654 1.654 0 00.533-2.277L83.88.787z"/>
          </g>
        </g>
      </g>
    </g>
  </g>
</svg>
