<svg width="81" height="74" viewBox="0 0 81 74" xmlns="http://www.w3.org/2000/svg">
  <g fill="none" fill-rule="evenodd">
    <g fill="#1E3066">
      <g>
        <g>
          <g>
            <path d="M54.86 50.626c0 1.316-.092 2.444-.277 3.387-.184.942-.455 1.706-.813 2.289-.356.583-.794 1.005-1.31 1.265-.517.26-1.108.39-1.774.39-.69 0-1.298-.13-1.828-.39s-.972-.682-1.329-1.265c-.357-.583-.635-1.347-.831-2.29-.197-.942-.295-2.07-.295-3.386v-5.582c0-1.34.098-2.468.295-3.386.196-.918.474-1.656.831-2.215.357-.557.794-.96 1.31-1.209.518-.247 1.121-.372 1.81-.372.666 0 1.262.125 1.792.372.53.249.973.652 1.33 1.21.357.558.628 1.296.812 2.214.185.918.277 2.047.277 3.386v5.582zm2.014-13.768a6.624 6.624 0 00-2.716-1.954c-1.059-.41-2.229-.614-3.509-.614-1.305 0-2.48.204-3.527.614-1.046.409-1.95 1.06-2.714 1.954-.764.892-1.348 2.065-1.755 3.516-.406 1.451-.61 3.232-.61 5.34v4.28c0 2.084.21 3.858.629 5.321.418 1.464 1.003 2.655 1.755 3.573a6.483 6.483 0 002.714 1.99c1.058.41 2.24.615 3.545.615 1.28 0 2.45-.205 3.51-.614a6.354 6.354 0 002.695-1.991c.74-.918 1.318-2.109 1.736-3.573.42-1.463.629-3.237.629-5.321v-4.28c0-2.108-.21-3.889-.629-5.34-.418-1.45-1.003-2.624-1.753-3.516zM38.387 52.711c.05.297.075.62.075.967 0 1.215-.222 2.307-.666 3.275a7.312 7.312 0 01-1.808 2.419c-.789.645-1.725 1.141-2.808 1.489-1.083.346-2.229.52-3.435.52-.566 0-1.12-.043-1.662-.128a21.07 21.07 0 01-1.588-.314 9.567 9.567 0 01-1.44-.607 11.567 11.567 0 01-1.293-.792 6.848 6.848 0 01-1.847-2.29c-.493-.941-.739-2.009-.739-3.2V52.6h.554a4.2 4.2 0 012.53.82 4.254 4.254 0 011.57 2.156v.038c.246.521.53.931.85 1.228.197.174.406.322.628.447.221.124.455.236.701.335.59.198 1.182.297 1.773.297 1.33 0 2.388-.373 3.177-1.121.762-.697 1.145-1.731 1.145-3.102 0-.722-.111-1.37-.334-1.943a4.19 4.19 0 00-.96-1.346c-.393-.324-.898-.585-1.514-.785a8.124 8.124 0 00-1.994-.224h-.85c-.468 0-.867-.168-1.2-.503-.332-.335-.498-.75-.498-1.247 0-.47.166-.875.498-1.21a1.631 1.631 0 011.2-.501h.85c.714 0 1.367-.1 1.958-.3a4.088 4.088 0 001.366-.822c.37-.35.652-.772.85-1.27.172-.45.258-.998.258-1.646 0-1.27-.332-2.243-.997-2.916-.616-.698-1.6-1.047-2.955-1.047-.615 0-1.145.087-1.588.26-.542.199-.96.447-1.256.744-.394.373-.677.758-.849 1.154v.037c-.32.87-.85 1.576-1.589 2.122a4.063 4.063 0 01-2.474.819h-.591V41.62c0-1.092.209-2.047.627-2.865a6.498 6.498 0 011.736-2.255c.714-.663 1.576-1.166 2.586-1.51a11.067 11.067 0 013.36-.515c1.232 0 2.353.148 3.363.447 1.034.322 1.907.794 2.622 1.414.689.62 1.268 1.402 1.736 2.344.393.993.59 2.072.59 3.238 0 .571-.086 1.104-.259 1.6a5.019 5.019 0 01-.738 1.563c-.32.52-.739.98-1.256 1.377-.468.447-1.047.819-1.736 1.116.837.322 1.515.683 2.032 1.079.517.372.972.844 1.367 1.414.171.273.32.553.443.838.123.285.221.589.295.911.074.298.135.596.184.894zm38.152 18.03H3.78c-.3 0-.545-.267-.545-.596V27.088h73.849v43.057c0 .33-.244.596-.544.596zM3.78 11.813h7.752v4.48c0 2.247 1.814 4.074 4.043 4.074h3.032c2.228 0 4.043-1.827 4.043-4.074v-4.48h35.02v4.48c0 2.247 1.814 4.074 4.043 4.074h3.032c2.23 0 4.043-1.827 4.043-4.074v-4.48h7.752c.3 0 .544.268.544.597v11.42H3.234V12.41c0-.33.244-.597.544-.597zm10.986-7.74c0-.449.362-.814.809-.814h3.032c.445 0 .808.365.808.814v12.22c0 .45-.363.815-.808.815h-3.032a.812.812 0 01-.809-.815V4.073zm46.138 0c0-.449.364-.814.809-.814h3.032c.446 0 .809.365.809.814v12.22c0 .45-.363.815-.809.815h-3.032a.812.812 0 01-.809-.815V4.073zM76.54 8.554h-7.752v-4.48C68.787 1.827 66.973 0 64.744 0h-3.032c-2.23 0-4.043 1.828-4.043 4.073v4.481H22.65v-4.48C22.649 1.827 20.834 0 18.606 0h-3.032c-2.23 0-4.043 1.828-4.043 4.073v4.481H3.778C1.696 8.554 0 10.284 0 12.41v57.735C0 72.27 1.696 74 3.778 74H76.54c2.083 0 3.778-1.73 3.778-3.855V12.41c0-2.126-1.695-3.856-3.778-3.856z"/>
          </g>
        </g>
      </g>
    </g>
  </g>
</svg>
