<svg width="96" height="52" viewBox="0 0 96 52" xmlns="http://www.w3.org/2000/svg">
  <g fill="none" fill-rule="evenodd">
    <g fill="#1E3066">
      <g>
        <g>
          <path d="M91.026.676H14.372a4.796 4.796 0 00-4.79 4.79v6.388a1.597 1.597 0 103.193 0V5.467c0-.88.717-1.597 1.597-1.597h4.791v7.985a1.597 1.597 0 003.194 0V3.87h41.52v7.985a1.597 1.597 0 003.194 0V3.87h15.97v7.985a1.598 1.598 0 003.194 0V3.87h4.79c.88 0 1.597.716 1.597 1.597v11.178h-4.791c-.88 0-1.596.716-1.596 1.597v14.372h-1.597a1.598 1.598 0 000 3.195h4.791v11.178a1.6 1.6 0 01-1.597 1.597H38.327V40.6a1.597 1.597 0 00-3.194 0v7.985h-3.194V40.6a1.597 1.597 0 00-3.194 0v7.985h-3.194V40.6a1.598 1.598 0 00-3.193 0v7.985H7.985a1.6 1.6 0 01-1.597-1.597V40.6a1.597 1.597 0 10-3.194 0v6.387c0 2.642 2.15 4.79 4.79 4.79h79.848a4.796 4.796 0 004.792-4.79V35.81c0-2.075-1.645-3.195-3.194-3.195V19.84h3.194c1.548 0 3.193-1.12 3.193-3.194V5.467c0-2.642-2.15-4.79-4.791-4.79"/>
          <path d="M3.193 31.018v-9.582c0-.91.687-1.597 1.597-1.597H15.97v12.776H4.79a1.58 1.58 0 01-1.597-1.597zm15.97 1.597H41.52V19.839H19.163v12.776zm51.103-12.776h6.387v20.97l-2.307-1.538a1.601 1.601 0 00-1.773 0l-2.307 1.538v-20.97zM62.28 35.81a1.597 1.597 0 000-3.194H44.715V19.839H67.07v23.955a1.598 1.598 0 002.484 1.328l3.905-2.603 3.904 2.603a1.59 1.59 0 001.64.08c.519-.278.844-.819.844-1.408V19.839h1.596a1.597 1.597 0 000-3.194H4.791C2.105 16.645 0 18.75 0 21.436v9.582a4.797 4.797 0 004.79 4.791h57.49z"/>
          <path d="M33.536 23.033c-.882 0-1.597.716-1.597 1.597v3.194a1.597 1.597 0 003.194 0V24.63c0-.881-.716-1.597-1.597-1.597"/>
          <path d="M27.148 23.033c-.882 0-1.597.716-1.597 1.597v3.194a1.597 1.597 0 003.194 0V24.63c0-.881-.716-1.597-1.597-1.597"/>
        </g>
      </g>
    </g>
  </g>
</svg>
